<svg width="17" height="18" viewBox="0 0 17 18" fill="none" xmlns="http://www.w3.org/2000/svg">
<path d="M0.906764 17.6677C0.635575 17.5323 0.5 17.1937 0.5 16.8551C0.5 16.7874 0.5 16.6519 0.5 16.5842C0.5 11.5732 0.5 6.56217 0.5 1.61886C0.5 1.34799 0.567788 1.14487 0.635575 0.873999C0.703402 0.738544 0.838977 0.603128 0.974591 0.467712C3.88981 3.3795 6.73724 6.2913 9.58467 9.20313C6.66945 11.9118 3.82202 14.7559 0.906764 17.6677Z" fill="#212529"/>
<path d="M12.432 6.22361C11.6184 7.03622 10.7371 7.84879 9.92353 8.72911C7.21167 5.95273 4.43203 3.17636 1.72018 0.399983C1.72018 0.399983 1.72018 0.332275 1.78796 0.332275C5.31339 2.29604 8.83877 4.25984 12.432 6.22361Z" fill="#212529"/>
<path d="M1.72018 17.6677C4.43203 14.959 7.21167 12.2504 9.92353 9.54175C10.6693 10.2866 11.4828 11.0315 12.3642 11.8441C8.83877 13.8079 5.31339 15.7717 1.78796 17.6677H1.72018Z" fill="#212529"/>
<path d="M12.839 11.5732C11.9577 10.7607 11.1441 9.94804 10.2628 9.13547C11.1441 8.25515 12.0255 7.37483 12.9068 6.49451C13.178 6.62992 13.4492 6.76538 13.7204 6.9685C14.3983 7.37483 15.1441 7.71341 15.8221 8.11969C16.0255 8.1874 16.161 8.32285 16.2966 8.52598C16.5678 8.86456 16.5678 9.20318 16.2966 9.54175C16.161 9.67717 16.0255 9.81262 15.8221 9.88033C14.8729 10.4898 13.856 11.0315 12.839 11.5732Z" fill="#212529"/>
</svg>
