<svg width="17" height="16" viewBox="0 0 17 16" fill="none" xmlns="http://www.w3.org/2000/svg">
<path fill-rule="evenodd" clip-rule="evenodd" d="M14.1001 2.4001V13.6001H2.9001V2.4001H14.1001ZM14.9001 1.6001H2.1001V14.4001H14.9001V1.6001ZM6.1001 8.0001H6.9001V8.8001H6.1001V12.0001H5.3001V8.8001H4.5001V8.0001H5.3001V4.0001H6.1001V8.0001ZM8.9001 4.0001H8.1001V5.6001H7.3001V6.4001H8.1001V12.0001H8.9001V6.4001H9.7001V5.6001H8.9001V4.0001ZM12.5001 10.4001H11.7001V4.0001H10.9001V10.4001H10.1001V11.2001H10.9001V12.0001H11.7001V11.2001H12.5001V10.4001Z" fill="#60656A"/>
<mask id="mask0_6223_7891" style="mask-type:alpha" maskUnits="userSpaceOnUse" x="2" y="1" width="13" height="14">
<path fill-rule="evenodd" clip-rule="evenodd" d="M14.1001 2.4001V13.6001H2.9001V2.4001H14.1001ZM14.9001 1.6001H2.1001V14.4001H14.9001V1.6001ZM6.1001 8.0001H6.9001V8.8001H6.1001V12.0001H5.3001V8.8001H4.5001V8.0001H5.3001V4.0001H6.1001V8.0001ZM8.9001 4.0001H8.1001V5.6001H7.3001V6.4001H8.1001V12.0001H8.9001V6.4001H9.7001V5.6001H8.9001V4.0001ZM12.5001 10.4001H11.7001V4.0001H10.9001V10.4001H10.1001V11.2001H10.9001V12.0001H11.7001V11.2001H12.5001V10.4001Z" fill="white"/>
</mask>
<g mask="url(#mask0_6223_7891)">
</g>
</svg>
