<svg width="56" height="56" viewBox="0 0 56 56" fill="none" xmlns="http://www.w3.org/2000/svg">
<rect width="56" height="56" rx="28" fill="#FFF200"/>
<g clip-path="url(#clip0_1285_1361)">
<path d="M27.9978 12C18.0612 12 10 18.1644 10 25.769C10 30.718 13.4155 35.0552 18.5387 37.4818C18.1644 38.8304 17.188 42.41 16.9772 43.1717C16.7363 44.1207 17.3385 44.1082 17.7343 43.8543L24.6598 39.2966C25.7647 39.4577 26.8805 39.5384 27.9978 39.538C37.9388 39.538 46 33.3736 46 25.769C46 18.1644 37.9388 12 27.9978 12Z" fill="#381E1F"/>
<path d="M15.4417 23.2341H17.2957C17.2957 23.2341 17.2957 28.1581 17.2957 29.3028C17.2957 30.1353 19.2228 30.1353 19.2228 29.3028V23.2841H21.0596C22.2124 23.2841 22.2124 21.5317 21.0596 21.5317C19.7691 21.5317 15.4245 21.4984 15.4245 21.4984C14.3362 21.4984 14.3405 23.2175 15.4245 23.2175" fill="#FAE100"/>
<path d="M24.3113 23.5505L25.3609 26.6764H23.2101L24.3113 23.5505ZM23.1542 22.0895C22.6982 23.0593 21.0507 27.6462 20.5044 28.8616C20.1086 29.744 21.8164 30.4599 22.225 29.5817L22.5949 28.333H25.9846C25.9846 28.333 25.8685 28.3871 26.3158 29.5359C26.6815 30.4641 28.4408 29.8231 28.0752 28.8907C27.5547 27.5588 25.7566 22.7721 25.4297 22.0978C25.2891 21.9159 25.1036 21.771 24.8902 21.6765C24.6768 21.5819 24.4422 21.5408 24.208 21.5567C23.9989 21.5387 23.7888 21.5804 23.6039 21.6765C23.4189 21.7727 23.267 21.9191 23.1671 22.0978" fill="#FAE100"/>
<path d="M28.7121 22.3726C28.7121 23.9335 28.7121 28.9574 28.7121 28.9574C28.7121 28.9574 28.5659 29.9563 29.452 29.9563H33.1686C34.0289 29.9563 34.0289 28.1624 33.1686 28.1624H30.7081C30.7081 28.1624 30.7081 23.5172 30.7081 22.3851C30.6669 22.1562 30.5437 21.9486 30.3599 21.7991C30.1762 21.6495 29.9438 21.5675 29.7036 21.5675C29.4635 21.5675 29.2311 21.6495 29.0474 21.7991C28.8636 21.9486 28.7403 22.1562 28.6992 22.3851" fill="#FAE100"/>
<path d="M34.2825 22.1269C34.2825 22.8095 34.2567 28.9947 34.2825 29.4526C34.2825 30.1727 36.1838 30.1727 36.1838 29.4526V27.0218L36.743 26.6056L39.182 29.8314C39.6767 30.4599 41.2295 29.3194 40.7392 28.6909L38.1582 25.386C38.1582 25.386 39.9175 23.5421 40.6101 22.8886C41.0145 22.4973 39.7498 21.2778 39.3583 21.669L36.1752 24.6784C36.1752 24.6784 36.1752 23.0135 36.1752 22.0728C36.1752 21.719 35.7192 21.5525 35.2632 21.5525C34.8073 21.5525 34.2739 21.744 34.2868 22.1227" fill="#FAE100"/>
</g>
<defs>
<clipPath id="clip0_1285_1361">
<rect width="36" height="32" fill="white" transform="translate(10 12)"/>
</clipPath>
</defs>
</svg>
