<svg width="36" height="36" viewBox="0 0 36 36" fill="none" xmlns="http://www.w3.org/2000/svg">
<path d="M30.8077 7.19995H5.19228C4.31651 7.19995 3.59998 7.82995 3.59998 8.59995V25.2H32.4V8.59995C32.4 7.82995 31.6834 7.19995 30.8077 7.19995Z" fill="white" stroke="#212529" stroke-miterlimit="10"/>
<path d="M6.5 22.2999V10.0999H29.5V22.2999H6.5Z" fill="#00C4C4" stroke="#212529"/>
<path d="M1.79999 25.2C1.79999 27.1845 3.08428 28.7909 5.28665 28.7909L12.2466 28.7999H22.5533L30.7133 28.7909C32.9157 28.7909 34.2 27.1845 34.2 25.2H1.79999Z" fill="#C5E8E8" stroke="#212529" stroke-miterlimit="10"/>
<path d="M15.6 27H20.4" stroke="#212529" stroke-miterlimit="10"/>
<path d="M21.4922 13.8C21.38 13.8 21.2723 13.8452 21.193 13.9256C21.1136 14.006 21.069 14.115 21.069 14.2287V15.6662C20.8398 15.4495 20.5546 15.3031 20.2466 15.2438C19.9385 15.1846 19.6202 15.215 19.3285 15.3315C19.0368 15.448 18.7837 15.6458 18.5985 15.9021C18.4133 16.1583 18.3037 16.4625 18.2822 16.7792C18.2655 17.0413 18.3108 17.3037 18.4146 17.5444C18.5183 17.7851 18.6773 17.9972 18.8784 18.163C19.2124 18.4344 19.625 18.5874 20.0531 18.5985C20.4811 18.6095 20.9009 18.4782 21.2481 18.2244C21.2744 18.2989 21.3227 18.3634 21.3865 18.409C21.4503 18.4546 21.5265 18.4792 21.6046 18.4793H21.9482V13.8H21.4922ZM20.1249 17.8918C19.6244 17.8918 19.2192 17.4474 19.2192 16.8992C19.2192 16.3511 19.6244 15.9071 20.1249 15.9071C20.6254 15.9071 21.0306 16.3511 21.0306 16.8992C21.0306 17.4474 20.6249 17.8918 20.1249 17.8918Z" fill="#1D2129"/>
<path d="M17.9182 18.4796V15.2734H17.4604C17.3541 15.2734 17.2518 15.3139 17.1736 15.3868C17.0955 15.4597 17.0473 15.5598 17.0386 15.667C16.8094 15.4505 16.5242 15.3042 16.2163 15.245C15.9083 15.1858 15.5901 15.2163 15.2985 15.3328C15.0069 15.4492 14.7538 15.647 14.5687 15.9032C14.3835 16.1593 14.2738 16.4634 14.2523 16.7801C14.2354 17.0421 14.2807 17.3044 14.3844 17.5451C14.488 17.7859 14.647 17.998 14.848 18.1638C15.182 18.4352 15.5946 18.5882 16.0227 18.5993C16.4507 18.6104 16.8705 18.479 17.2177 18.2253C17.244 18.2997 17.2923 18.3642 17.3561 18.4098C17.4199 18.4554 17.4961 18.48 17.5742 18.4801L17.9182 18.4796ZM16.0945 17.8922C15.594 17.8922 15.1888 17.4477 15.1888 16.8996C15.1888 16.3514 15.594 15.9075 16.0945 15.9075C16.595 15.9075 17.0002 16.3514 17.0002 16.8996C17.0002 17.4477 16.595 17.8922 16.0945 17.8922Z" fill="#1D2129"/>
<path d="M26.9141 15.2739H24.624C24.5118 15.2739 24.4041 15.3191 24.3247 15.3995C24.2454 15.4798 24.2008 15.5889 24.2008 15.7025V16.0265H25.6373L24.1013 18.0208V18.4816H26.9141V17.7285H25.3809L26.9141 15.7385V15.2739Z" fill="#1D2129"/>
<path d="M23.0932 13.8254C22.9869 13.8254 22.883 13.8574 22.7946 13.9172C22.7063 13.977 22.6374 14.062 22.5967 14.1614C22.556 14.2609 22.5454 14.3703 22.5661 14.4759C22.5869 14.5815 22.638 14.6785 22.7132 14.7546C22.7884 14.8307 22.8841 14.8826 22.9884 14.9036C23.0926 14.9246 23.2007 14.9138 23.2989 14.8726C23.3971 14.8314 23.4811 14.7616 23.5401 14.6721C23.5992 14.5826 23.6307 14.4774 23.6307 14.3697C23.6307 14.2983 23.6168 14.2275 23.5898 14.1614C23.5628 14.0954 23.5232 14.0354 23.4733 13.9849C23.4234 13.9343 23.3641 13.8942 23.2989 13.8669C23.2337 13.8395 23.1638 13.8254 23.0932 13.8254Z" fill="#1D2129"/>
<path d="M13.4039 15.2739L12.7641 17.2711L12.119 15.2739H11.4887C11.3996 15.2744 11.3128 15.3031 11.2407 15.3561C11.1685 15.409 11.1145 15.4835 11.0863 15.5691L10.537 17.2711L9.89718 15.2739H9L10.0531 18.4806H10.9536L11.6503 16.4235L12.3479 18.4806H13.2484L14.3015 15.2739H13.4039Z" fill="#1D2129"/>
<path d="M22.6595 18.4811H23.5416V15.2739H23.0828C22.9705 15.2739 22.8629 15.3191 22.7835 15.3995C22.7041 15.4798 22.6595 15.5889 22.6595 15.7025V18.4811Z" fill="#1D2129"/>
</svg>
