<svg width="20" height="20" viewBox="0 0 20 20" fill="none" xmlns="http://www.w3.org/2000/svg">
<g clip-path="url(#clip0_6173_18148)">
<path d="M13.3833 2H6.61958C4.06762 2 2 4.06762 2 6.61958V13.3833C2 15.9324 4.06762 18 6.61958 18H13.3833C15.9352 18 18.0028 15.9324 18.0028 13.3833V6.61958C18 4.06762 15.9324 2 13.3833 2ZM16.5272 13.5022C16.5272 15.196 15.1535 16.5668 13.4626 16.5668H6.54027C4.84652 16.5668 3.47566 15.1931 3.47566 13.5022V6.57993C3.47566 4.88617 4.84935 3.51531 6.54027 3.51531H13.4626C15.1563 3.51531 16.5272 4.88901 16.5272 6.57993V13.5022Z" fill="#1C1E24"/>
<path d="M10.0014 5.88879C7.70721 5.88879 5.84918 7.74682 5.84918 10.041C5.84918 12.3352 7.70721 14.1933 10.0014 14.1933C12.2956 14.1933 14.1537 12.3352 14.1537 10.041C14.1537 7.74682 12.2956 5.88879 10.0014 5.88879ZM10.0014 12.7318C8.51443 12.7318 7.31068 11.528 7.31068 10.041C7.31068 8.55404 8.51443 7.35029 10.0014 7.35029C11.4884 7.35029 12.6922 8.55404 12.6922 10.041C12.6922 11.528 11.4884 12.7318 10.0014 12.7318Z" fill="#1C1E24"/>
<path d="M14.2896 4.7644C13.7543 4.7644 13.3238 5.19776 13.3238 5.73024C13.3238 6.26272 13.7571 6.69607 14.2896 6.69607C14.8221 6.69607 15.2555 6.26272 15.2555 5.73024C15.2555 5.19776 14.8221 4.7644 14.2896 4.7644Z" fill="#1C1E24"/>
</g>
<defs>
<clipPath id="clip0_6173_18148">
<rect width="16" height="16" fill="white" transform="translate(2 2)"/>
</clipPath>
</defs>
</svg>
