<svg width="20" height="20" viewBox="0 0 20 20" fill="none" xmlns="http://www.w3.org/2000/svg">
<g clip-path="url(#clip0_6173_18144)">
<path fill-rule="evenodd" clip-rule="evenodd" d="M15.3459 2.92841C15.5956 2.45403 15.9711 1.81439 15.782 1.16055C15.6403 1.06278 15.5484 0.997156 15.2914 0.999835C12.275 2.13287 9.4414 8.0335 7.25157 11.6605C6.33421 13.223 5.41631 14.7856 4.49895 16.348C4.25667 16.4346 3.87702 16.1239 3.65409 15.9998C3.60857 16.0981 3.56333 16.1962 3.51782 16.2945C3.67126 16.4999 3.95279 16.6955 4.22642 16.7766C3.95987 17.2489 3.26681 18.436 3 18.8927C3.01499 18.9658 3.0278 18.9886 3.11637 18.9594C3.39327 18.8678 4.41637 18.4906 4.63522 18.0891C4.69872 17.8569 4.70117 17.7254 4.79874 17.473C4.8647 17.3614 4.96444 17.1227 5.18029 17.0445C5.62753 17.0399 6.72258 16.9687 8.28721 16.5623C9.78317 16.1469 11.7697 15.2557 12.9203 13.8838C13.4368 13.268 14.1555 12.3747 14.0105 11.1248C13.9053 10.2192 12.814 9.87689 11.7484 10.1873C10.3907 10.583 9.5278 11.4307 8.55975 12.1963C8.31229 12.3921 8.07463 12.6473 7.76939 12.9463C7.68763 13.0178 7.60587 13.089 7.52411 13.1605C7.51512 13.1672 7.4786 13.1338 7.4696 13.1338C7.76176 12.5375 8.15231 11.9863 8.45073 11.5266C9.27161 10.2623 10.2149 9.1443 11.2579 8.09805C11.9158 7.43805 12.7762 6.62055 12.2662 5.95519C12.5843 5.76769 12.9021 5.58019 13.2201 5.39269C14.1236 4.7643 14.8183 3.931 15.3459 2.92841ZM10.3585 11.473C10.8278 11.1851 11.3235 10.9322 11.8574 10.8034C12.1229 10.801 12.3998 10.7715 12.566 10.9373C13.0329 11.4404 12.3608 12.8445 11.8302 13.5088C10.416 15.2793 8.31092 16.2516 5.45283 16.5623V16.5355C6.48465 14.6662 8.54312 12.5871 10.3585 11.473ZM12.8386 4.88376C12.5358 5.15992 12.2027 5.41841 11.7029 5.77492C11.6416 5.81858 11.5683 5.87323 11.5849 6.03555C11.6438 6.18823 11.8182 6.35671 11.6939 6.57126C11.4734 6.95189 10.3871 7.97028 10.0587 8.28555C10.9987 6.42046 12.2635 4.83475 13.5199 3.27662C13.965 2.80358 14.4375 2.27644 14.8826 1.80341C14.7932 2.36216 14.5 2.81885 14.3375 3.08912C13.926 3.77403 13.4581 4.31912 12.8386 4.88376Z" fill="#1C1E24"/>
<path fill-rule="evenodd" clip-rule="evenodd" d="M4.79874 18.7322H16L15.8365 19H4.66248L4.68973 18.9197L4.79874 18.7322Z" fill="#1C1E24"/>
</g>
<defs>
<clipPath id="clip0_6173_18144">
<rect width="13" height="18" fill="white" transform="translate(3 1)"/>
</clipPath>
</defs>
</svg>
