<svg width="16" height="16" viewBox="0 0 16 16" fill="none" xmlns="http://www.w3.org/2000/svg">
<path fill-rule="evenodd" clip-rule="evenodd" d="M4.00039 3.20002V4.00002H3.20039V3.20002H4.00039ZM4.80039 2.40002H2.40039V4.80002H4.80039V2.40002ZM14.4004 3.20002H6.40039V4.00002H14.4004V3.20002ZM4.00039 7.60002V8.40002H3.20039V7.60002H4.00039ZM4.80039 6.80002H2.40039V9.20002H4.80039V6.80002ZM14.4004 7.60002H6.40039V8.40002H14.4004V7.60002ZM4.00039 12V12.8H3.20039V12H4.00039ZM4.80039 11.2H2.40039V13.6H4.80039V11.2ZM14.4004 12H6.40039V12.8H14.4004V12Z" fill="#60656A"/>
<mask id="mask0_6491_9190" style="mask-type:alpha" maskUnits="userSpaceOnUse" x="2" y="2" width="13" height="12">
<path fill-rule="evenodd" clip-rule="evenodd" d="M4.00039 3.20002V4.00002H3.20039V3.20002H4.00039ZM4.80039 2.40002H2.40039V4.80002H4.80039V2.40002ZM14.4004 3.20002H6.40039V4.00002H14.4004V3.20002ZM4.00039 7.60002V8.40002H3.20039V7.60002H4.00039ZM4.80039 6.80002H2.40039V9.20002H4.80039V6.80002ZM14.4004 7.60002H6.40039V8.40002H14.4004V7.60002ZM4.00039 12V12.8H3.20039V12H4.00039ZM4.80039 11.2H2.40039V13.6H4.80039V11.2ZM14.4004 12H6.40039V12.8H14.4004V12Z" fill="white"/>
</mask>
<g mask="url(#mask0_6491_9190)">
</g>
</svg>
