<svg width="29" height="30" viewBox="0 0 29 30" fill="none" xmlns="http://www.w3.org/2000/svg">
<g id="Group 225">
<rect id="Rectangle 337" width="29" height="30" rx="7" fill="#3C8D40"/>
<path id="Icon" d="M11.5 25H16.5M10 5H18M14 8V5M6 15H22M19 22L20.5 25M9 22L7.5 25M10.5 18.5H10.51M17.5 18.5H17.51M10.8 22H17.2C18.8802 22 19.7202 22 20.362 21.673C20.9265 21.3854 21.3854 20.9265 21.673 20.362C22 19.7202 22 18.8802 22 17.2V12.8C22 11.1198 22 10.2798 21.673 9.63803C21.3854 9.07354 20.9265 8.6146 20.362 8.32698C19.7202 8 18.8802 8 17.2 8H10.8C9.11984 8 8.27976 8 7.63803 8.32698C7.07354 8.6146 6.6146 9.07354 6.32698 9.63803C6 10.2798 6 11.1198 6 12.8V17.2C6 18.8802 6 19.7202 6.32698 20.362C6.6146 20.9265 7.07354 21.3854 7.63803 21.673C8.27976 22 9.11984 22 10.8 22ZM11 18.5C11 18.7761 10.7761 19 10.5 19C10.2239 19 10 18.7761 10 18.5C10 18.2239 10.2239 18 10.5 18C10.7761 18 11 18.2239 11 18.5ZM18 18.5C18 18.7761 17.7761 19 17.5 19C17.2239 19 17 18.7761 17 18.5C17 18.2239 17.2239 18 17.5 18C17.7761 18 18 18.2239 18 18.5Z" stroke="white" stroke-width="1.5" stroke-linecap="round" stroke-linejoin="round"/>
</g>
</svg>
